<svg xmlns="http://www.w3.org/2000/svg" width="64" height="64" viewBox="0 0 64 64" role="img" aria-label="Weather">
  <defs>
    <linearGradient id="sun" x1="0" y1="0" x2="1" y2="1">
      <stop offset="0" stop-color="#FFD766"/>
      <stop offset="1" stop-color="#FFB347"/>
    </linearGradient>
  </defs>
  <g fill="none" stroke="none">
    <circle cx="22" cy="22" r="10" fill="url(#sun)"/>
    <g stroke="#FFB347" stroke-width="2" stroke-linecap="round">
      <line x1="22" y1="6" x2="22" y2="2"/>
      <line x1="22" y1="42" x2="22" y2="46"/>
      <line x1="6" y1="22" x2="2" y2="22"/>
      <line x1="42" y1="22" x2="46" y2="22"/>
      <line x1="10" y1="10" x2="7" y2="7"/>
      <line x1="34" y1="34" x2="37" y2="37"/>
      <line x1="10" y1="34" x2="7" y2="37"/>
      <line x1="34" y1="10" x2="37" y2="7"/>
    </g>
    <path d="M24 46h22a10 10 0 0 0 0-20c-1 0-2 0-3 .3A14 14 0 0 0 15 30a9 9 0 0 0 9 16z" fill="#E6F0FF"/>
    <path d="M24 46h22a10 10 0 0 0 0-20c-1 0-2 0-3 .3A14 14 0 0 0 15 30a9 9 0 0 0 9 16z" fill="none" stroke="#B3C8FF" stroke-width="2"/>
  </g>
</svg>
